<svg aria-hidden="true" style="position: absolute; width: 0; height: 0; overflow: hidden;" version="1.1" xmlns="http://www.w3.org/2000/svg" xmlns:xlink="http://www.w3.org/1999/xlink">
<defs>
<symbol id="icon-Luppa" viewBox="0 0 32 32">
<path fill="#fff" style="fill: var(--color1, #fff)" d="M19.499 18h-0.8l-0.27-0.27c0.976-1.127 1.57-2.607 1.57-4.225 0-0.002 0-0.003 0-0.005v0c0-3.59-2.91-6.5-6.5-6.5s-6.5 2.91-6.5 6.5c0 3.59 2.91 6.5 6.5 6.5v0c1.61 0 3.090-0.59 4.23-1.57l0.27 0.27v0.8l5 4.99 1.49-1.49-4.99-5zM13.5 18c-2.49 0-4.5-2.010-4.5-4.5s2.010-4.5 4.5-4.5 4.5 2.010 4.5 4.5-2.010 4.5-4.5 4.5z"></path>
</symbol>
<symbol id="icon-burger-menu" viewBox="0 0 32 32">
<path fill="#fff" style="fill: var(--color1, #fff)" d="M7 22h18.009v-2h-18.009v2zM7 17h18.009v-2h-18.009v2zM7 10v2h18.009v-2h-18.009z"></path>
</symbol>
<symbol id="icon-Linkedin" viewBox="0 0 32 32">
<path fill="#fff" style="fill: var(--color1, #fff)" d="M7.333 8c-1.105 0-2-0.895-2-2s0.895-2 2-2v0c1.105 0 2 0.895 2 2s-0.895 2-2 2v0zM22.564 25.333h4.103v-9.012c0-3.813-2.141-5.655-5.043-5.655s-4.188 2.351-4.188 2.351v-1.56h-4.103v13.876h4.103v-7.472c0-2 1.007-3.192 2.701-3.192 1.557 0 2.427 1.143 2.427 3.192v7.472zM9.333 25.333h-4v-13.333h4v13.333z"></path>
</symbol>
<symbol id="icon-Google" viewBox="0 0 32 32">
<path fill="#fff" style="fill: var(--color1, #fff)" d="M25.16 14.133h-8.973v3.733h5.2c-0.2 0.933-0.907 2.24-1.907 2.893-1.333 0.88-3.080 1.080-4.387 0.813-2.027-0.4-3.64-1.88-4.293-3.76v-0.027c-0.4-1.16-0.4-2.72 0-3.653 0.533-1.72 2.187-3.28 4.227-3.707 1.64-0.347 3.493 0.027 4.853 1.293 0.187-0.173 2.507-2.44 2.693-2.627-4.653-4.213-12.107-2.733-14.893 2.707l-0.013 0.013c-0.636 1.213-1.009 2.65-1.009 4.174 0 1.534 0.378 2.98 1.046 4.25l-0.024-0.050h-0.013c1.213 2.347 3.413 4.133 6.053 4.827 2.813 0.733 6.387 0.227 8.787-1.933 2.027-1.827 3.293-4.947 2.653-8.947z"></path>
</symbol>
<symbol id="icon-Facebook" viewBox="0 0 32 32">
<path fill="#fff" style="fill: var(--color1, #fff)" d="M17.933 25.333v-9h2.92l0.48-4h-3.4v-1.96c0-1.027 0.027-2.040 1.56-2.040h1.56v-2.867c0-0.040-1.333-0.133-2.68-0.133-2.827 0-4.6 1.653-4.6 4.693v2.307h-3.107v4h3.107v9h4.16z"></path>
</symbol>
</defs>
</svg>
